<svg width="215" height="204" viewBox="0 0 215 204" fill="none" xmlns="http://www.w3.org/2000/svg">
<g clip-path="url(#clip0_48_547)">
<path fill-rule="evenodd" clip-rule="evenodd" d="M64.9266 64.8751C64.8473 66.2597 64.7713 67.4514 64.7274 68.0808C64.4507 71.9088 65.0348 81.5965 62.942 88.2468C61.3472 93.3211 58.1942 96.6477 52.6291 95.6156C47.571 94.6774 43.9338 90.2258 41.6678 84.0031C36.7908 70.6106 37.9002 48.995 40.0906 42.6951C40.3301 42.0075 41.1492 41.6783 41.924 41.9601C42.6952 42.2405 43.1292 43.0235 42.8897 43.7111C40.7893 49.7573 39.7583 70.5061 44.4399 83.3633C46.2705 88.3885 48.8761 92.2273 52.9622 92.9844C56.9947 93.7334 58.9634 90.9752 60.1194 87.2965C62.1576 80.8249 61.535 71.3944 61.8022 67.6668C61.9711 65.3302 62.3378 56.3795 62.5723 55.6358C62.8653 54.7043 63.7158 54.7085 63.9966 54.7292C64.2143 54.7449 65.3002 54.8875 65.5026 56.1059C68.3996 73.4791 85.8403 99.3686 108.836 116.419C131.63 133.319 159.981 141.525 185.076 123.578C185.687 123.143 186.614 123.277 187.146 123.874C187.677 124.475 187.614 125.315 187.003 125.75C160.708 144.554 131 136.153 107.121 118.448C86.9947 103.527 71.0806 81.9882 64.9266 64.8751Z" fill="black"/>
<path fill-rule="evenodd" clip-rule="evenodd" d="M184.582 125.422C181.129 125.247 177.694 125.173 174.229 124.752C164.998 123.633 155.492 120.692 147.496 115.754C146.797 115.32 146.566 114.482 146.973 113.879C147.386 113.275 148.284 113.137 148.98 113.566C156.566 118.256 165.598 121.027 174.355 122.089C178.321 122.569 182.252 122.588 186.214 122.835C186.411 122.85 188.132 122.909 188.5 123.014C189.358 123.251 189.596 123.841 189.67 124.123C189.734 124.359 189.75 124.65 189.625 124.979C189.52 125.248 189.185 125.705 188.587 126.217C186.678 127.863 181.563 131.064 180.792 131.677C171.956 138.694 165.159 146.692 157.756 154.929C157.262 155.474 156.341 155.512 155.699 155.012C155.056 154.512 154.935 153.663 155.426 153.116C162.921 144.774 169.818 136.685 178.763 129.584C179.291 129.161 182.371 126.981 184.582 125.422Z" fill="black"/>
</g>
<defs>
<clipPath id="clip0_48_547">
<rect width="169.874" height="149.921" fill="white" transform="matrix(0.922133 0.386874 0.386874 -0.922133 0 138.247)"/>
</clipPath>
</defs>
</svg>
