<svg width="263" height="45" viewBox="0 0 263 45" fill="none" xmlns="http://www.w3.org/2000/svg">
<path d="M22.2915 44.2221C29.6479 44.2221 35.0057 43.2782 38.3091 41.3905C41.6126 39.5028 43.2505 35.4221 43.2505 29.1205C43.2505 25.3729 42.0845 22.7079 39.7527 21.1533C37.3931 19.5987 32.8959 18.294 26.2612 17.2114C22.7912 16.6839 19.8208 16.323 17.4057 16.1009C14.9905 15.8789 13.7691 14.9628 13.7691 13.3527C13.7691 11.7703 14.5464 10.9098 16.1287 10.7155C17.6833 10.5211 19.571 10.4379 21.7918 10.4379C23.735 10.4379 25.5394 10.6322 27.1773 10.9931C28.8151 11.3539 29.6479 12.9085 29.6479 15.6013H43.2227C43.2227 9.41073 41.4738 5.27445 38.0038 3.19243C34.506 1.11041 29.1483 0.0555223 21.9584 0.0555223C14.7407 0.0555223 9.41073 0.999372 5.96845 2.88707C2.49842 4.77476 0.777287 8.74448 0.777287 14.7685C0.777287 18.6827 1.99874 21.4864 4.44164 23.1798C6.85678 24.8732 11.2429 26.2612 17.5445 27.3161C21.1811 27.8158 24.1514 28.2044 26.511 28.4543C28.8429 28.7041 30.0088 29.5647 30.0088 31.0082C30.0088 32.5905 29.2315 33.4511 27.677 33.5899C26.0946 33.7287 24.2625 33.812 22.1804 33.812C20.0707 33.812 18.2385 33.6454 16.6839 33.3123C15.1016 33.0069 14.3243 31.4246 14.3243 28.5653H0.749527C0.749527 35.089 2.4429 39.3363 5.80189 41.2795C9.16088 43.2505 14.6574 44.2221 22.2915 44.2221ZM66.1787 44.2221C73.3686 44.2221 78.7541 42.7508 82.2796 39.8082C85.8052 36.8934 87.5819 32.2297 87.5819 25.817V0.0555223H74.0071V24.2347C74.0071 27.5382 73.4241 29.8145 72.2582 31.036C71.0923 32.2574 69.0658 32.8681 66.1787 32.8681C63.2916 32.8681 61.2651 32.2574 60.0992 31.0082C58.9333 29.7868 58.3503 27.5382 58.3503 24.2347V0.0555223H44.7755V25.817C44.7755 32.2297 46.5522 36.8934 50.0778 39.8082C53.6033 42.7508 58.9888 44.2221 66.1787 44.2221ZM107.839 31.7022C106.728 31.7022 105.34 32.1186 104.424 32.7571L101.87 34.9502L101.37 34.2006L125.827 12.7142V0.0555223H89.4891V12.5754H107.034C108.144 12.5754 109.504 12.1868 110.448 11.576L113.058 9.38297L113.585 10.1325L89.0727 31.3691V44H126.16V31.7022H107.839ZM149.08 44.2221C156.27 44.2221 161.655 42.7508 165.181 39.8082C168.706 36.8934 170.483 32.2297 170.483 25.817V0.0555223H156.908V24.2347C156.908 27.5382 156.325 29.8145 155.159 31.036C153.993 32.2574 151.967 32.8681 149.08 32.8681C146.193 32.8681 144.166 32.2574 143 31.0082C141.834 29.7868 141.252 27.5382 141.252 24.2347V0.0555223H127.677V25.817C127.677 32.2297 129.453 36.8934 132.979 39.8082C136.505 42.7508 141.89 44.2221 149.08 44.2221ZM185.41 27.5382C185.41 26.4278 185.216 24.9287 184.91 23.8461L183.134 10.882H183.966L190.851 44H206.674L213.587 10.882H214.419L212.587 23.9016C212.282 24.9842 212.115 26.4833 212.115 27.6215V44H225.551V0.0555223H204.009L199.845 18.7104C199.568 19.7931 199.401 21.2921 199.401 22.4303V30.0088H198.568V22.4303C198.568 21.2921 198.374 19.8208 198.069 18.7104L193.766 0.0555223H171.974V44H185.41V27.5382ZM228.037 44H262.57V32.7571H241.639V27.5659H262.126V16.3508H241.639V11.2984H262.57V0.0555223H228.037V44Z" fill="black"/>
</svg>
